<?xml version="1.0" encoding="UTF-8"?>
<svg id="Outline" xmlns="http://www.w3.org/2000/svg" version="1.1" viewBox="0 0 64 64">
  <!-- Generator: Adobe Illustrator 29.5.1, SVG Export Plug-In . SVG Version: 2.1.0 Build 141)  -->
  <path d="M54.937,34.763c0-.058.003-.115.003-.173,0-4.333-1.014-8.569-2.916-12.318.002-.002.004-.003.006-.005,1.413-1.386,1.584-3.571.405-5.198-4.592-6.305-12.044-10.069-19.935-10.069s-15.343,3.764-19.931,10.064c-.506.687-.785,1.534-.785,2.386,0,1.066.421,2.067,1.186,2.817.002.002.004.003.006.005-1.902,3.749-2.916,7.985-2.916,12.318,0,.058.002.115.003.173-1.864,1.467-3.063,3.716-3.063,6.237,0,4.411,3.661,8,8.16,8h.188c.422,1.161,1.544,2,2.872,2h4.08c1.687,0,3.06-1.346,3.06-3v-14c0-1.654-1.373-3-3.06-3h-4.08c-1.328,0-2.45.839-2.872,2h-.188c-1.071,0-2.091.209-3.029.578.141-3.63,1.036-7.156,2.617-10.31.459.127.937.196,1.425.156,1.21-.097,2.314-.713,3.031-1.693,2.677-3.685,6.823-6.097,11.374-6.617.56-.064.96-.561.895-1.109-.065-.549-.579-.946-1.131-.877-5.124.585-9.789,3.298-12.798,7.44-.365.499-.926.813-1.538.863-.598.051-1.165-.157-1.594-.577-.38-.372-.589-.871-.589-1.403,0-.435.141-.866.402-1.219,4.209-5.78,11.041-9.231,18.274-9.231s14.065,3.451,18.273,9.229c.599.827.521,1.931-.186,2.624-.428.42-.987.628-1.594.577-.612-.049-1.173-.364-1.536-.86-3.011-4.145-7.676-6.857-12.8-7.443-.556-.066-1.066.329-1.131.877-.065.548.335,1.045.895,1.109,4.552.52,8.698,2.932,11.376,6.619.715.978,1.819,1.594,3.029,1.691.111.009.221.013.332.013.375,0,.739-.068,1.094-.167,1.58,3.154,2.475,6.679,2.616,10.308-.938-.369-1.958-.578-3.029-.578h-.188c-.422-1.161-1.544-2-2.872-2h-4.08c-1.687,0-3.06,1.346-3.06,3v8c0,.552.457,1,1.02,1s1.02-.448,1.02-1v-8c0-.551.458-1,1.02-1h4.08c.562,0,1.02.449,1.02,1v14c0,.551-.458,1-1.02,1h-4.08c-.562,0-1.02-.449-1.02-1v-2c0-.552-.457-1-1.02-1s-1.02.448-1.02,1v2c0,1.654,1.373,3,3.06,3h1.02v1c0,.551-.458,1-1.02,1h-6.362c-.55-1.173-2.032-2-3.838-2-2.288,0-4.08,1.318-4.08,3s1.792,3,4.08,3c1.806,0,3.288-.827,3.838-2h6.362c1.687,0,3.06-1.346,3.06-3v-1h1.02c1.328,0,2.45-.839,2.872-2h.188c4.499,0,8.16-3.589,8.16-8,0-2.521-1.198-4.77-3.063-6.237ZM18.22,33h4.08c.562,0,1.02.449,1.02,1v14c0,.551-.458,1-1.02,1h-4.08c-.562,0-1.02-.449-1.02-1v-14c0-.551.458-1,1.02-1ZM15.16,47c-3.375,0-6.12-2.691-6.12-6s2.745-6,6.12-6v12ZM32.5,55c-1.245,0-2.04-.592-2.04-1s.795-1,2.04-1,2.04.592,2.04,1-.795,1-2.04,1ZM49.84,47v-12c3.375,0,6.12,2.691,6.12,6s-2.745,6-6.12,6Z"/>
  <path d="M30.46,30c.563,0,1.02-.448,1.02-1s-.457-1-1.02-1h-2.04v-2h2.04c.563,0,1.02-.448,1.02-1v-4c0-.552-.457-1-1.02-1h-3.06c-.563,0-1.02.448-1.02,1s.457,1,1.02,1h2.04v2h-2.04c-.563,0-1.02.448-1.02,1v4c0,.552.457,1,1.02,1h3.06Z"/>
  <path d="M33.52,19c-.563,0-1.02.448-1.02,1v4c0,.552.457,1,1.02,1h3.06v4c0,.552.457,1,1.02,1s1.02-.448,1.02-1v-9c0-.552-.457-1-1.02-1s-1.02.448-1.02,1v3h-2.04v-3c0-.552-.457-1-1.02-1Z"/>
  <path d="M31.122,45.937c.118.043.239.064.358.064.413,0,.801-.248.955-.649l3.06-8c.117-.307.074-.651-.117-.921-.19-.27-.504-.43-.838-.43h-4.08c-.563,0-1.02.448-1.02,1s.457,1,1.02,1h2.608l-2.544,6.649c-.198.517.07,1.093.597,1.288Z"/>
  <path d="M36.58,34c.563,0,1.02-.448,1.02-1s-.457-1-1.02-1h-8.16c-.563,0-1.02.448-1.02,1s.457,1,1.02,1h8.16Z"/>
</svg>
