<?xml version="1.0" encoding="UTF-8"?>
<svg id="Outline" xmlns="http://www.w3.org/2000/svg" version="1.1" viewBox="0 0 64 64">
  <!-- Generator: Adobe Illustrator 29.5.1, SVG Export Plug-In . SVG Version: 2.1.0 Build 141)  -->
  <path d="M46.93,33.982c1.296-1.817,2.07-4.127,2.07-5.982,0-3.86-3.141-7-7-7s-7,3.14-7,7c0,1.855.774,4.165,2.07,5.982-4.266,1.748-7.299,5.669-7.936,10.231-2.601-1.065-4.464-2.578-5.617-3.731-2.973-2.974-4.143-6.348-4.595-8.309l3.63-6.06c.484-.786.363-1.794-.295-2.452l-6.6-6.601c-.711-.708-1.845-.778-2.641-.162l-5.242,4.071c-.522.408-.812,1.053-.771,1.754.226,2.622.717,5.182,1.46,7.607.161.528.719.825,1.249.663.528-.162.825-.721.663-1.249-.702-2.292-1.166-4.711-1.373-7.198l1.258-.977,7.93,7.931-1.188,1.983c-.129.214-.173.469-.122.714.43,2.101,1.68,6.154,5.222,9.697,1.376,1.376,3.671,3.204,6.897,4.397v.706c0,1.103.897,2,2,2h6.686l4.745,4.745-.975,1.259c-4.861-.418-14.207-2.309-22.182-10.284-1.79-1.776-5.154-5.605-7.574-11.301-.216-.509-.806-.745-1.311-.529-.509.216-.746.803-.529,1.312,2.553,6.01,6.111,10.06,8.003,11.936,8.421,8.421,18.288,10.418,23.446,10.861.042.002.084.004.126.004.634,0,1.224-.291,1.584-.778l4.08-5.241c.449-.579.53-1.338.268-1.983h.632c.553,0,1-.448,1-1s-.447-1-1-1h-17v-1c0-4.735,3.064-8.94,7.509-10.421,1.01.867,2.192,1.421,3.491,1.421s2.481-.554,3.491-1.421c4.444,1.481,7.509,5.686,7.509,10.421v1h-1c-.553,0-1,.448-1,1s.447,1,1,1h1c1.103,0,2-.897,2-2v-1c0-5.304-3.255-10.045-8.07-12.018ZM11.852,20.335l2.391-1.858,6.6,6.599-1.592,2.658-7.399-7.399ZM45.521,49.756l-1.855,2.395-3.152-3.151h4.251l.755.756ZM42,23c2.414,0,4.434,1.721,4.899,4h-2.899c-.552,0-1-.449-1-1s-.447-1-1-1-1,.448-1,1-.448,1-1,1h-2.899c.465-2.279,2.484-4,4.899-4ZM37.089,29h2.911c.768,0,1.469-.29,2-.766.531.476,1.232.766,2,.766h2.911c-.451,2.812-2.656,6-4.911,6s-4.46-3.188-4.911-6Z"/>
  <circle cx="32" cy="15" r="1"/>
  <circle cx="28" cy="15" r="1"/>
  <circle cx="24" cy="15" r="1"/>
  <path d="M28,23h7c.365,0,.701-.199.877-.519.175-.32.163-.71-.033-1.018l-1.24-1.949c.905-1.324,1.396-2.901,1.396-4.515,0-4.411-3.589-8-8-8s-8,3.589-8,8,3.589,8,8,8ZM28,9c3.309,0,6,2.691,6,6,0,1.396-.49,2.755-1.381,3.829-.277.334-.308.809-.074,1.175l.634.996h-5.179c-3.309,0-6-2.691-6-6s2.691-6,6-6Z"/>
</svg>