<svg xmlns="http://www.w3.org/2000/svg" baseProfile="basic" viewBox="0 0 48 48"><path d="M34,3h-9c-0.265,0-0.52,0.105-0.707,0.293l-22,22C2.098,25.488,2,25.744,2,26v2c0,0.256,0.098,0.512,0.293,0.707	l17.274,17.275c0.671,0.67,1.552,1.005,2.433,1.005s1.762-0.335,2.433-1.006l20.274-20.275C44.895,25.519,45,25.265,45,25V14	C45,7.925,40.075,3,34,3z"/><path fill="#fff" d="M36,4H25L3,26l17.275,17.275c0.953,0.953,2.498,0.953,3.451,0L44,23V12C44,7.582,40.418,4,36,4z"/><path d="M22,44.988c-0.881,0-1.762-0.335-2.433-1.005L2.293,26.707c-0.391-0.391-0.391-1.023,0-1.414l22-22	C24.48,3.105,24.734,3,25,3h11c4.963,0,9,4.038,9,9v11c0,0.265-0.105,0.52-0.293,0.707L24.433,43.982	C23.762,44.652,22.881,44.988,22,44.988z M4.414,26l16.567,16.568c0.562,0.561,1.475,0.561,2.037,0L43,22.586V12c0-3.86-3.141-7-7-7	H25.414L4.414,26z M44,23h0.01H44z"/><circle cx="36.5" cy="11.5" r="2.5"/><path d="M22.989,34.966c-0.69,0-1.381-0.263-1.907-0.787l-0.146-0.145c-0.512-0.513-0.793-1.191-0.793-1.912	c0-0.722,0.281-1.4,0.791-1.91l1.42-1.42c1.053-1.051,2.766-1.052,3.818-0.001l0.146,0.146c1.053,1.053,1.053,2.766,0,3.818	l-1.42,1.42C24.372,34.702,23.681,34.966,22.989,34.966z M24.264,30.002c-0.18,0-0.358,0.068-0.495,0.205l-1.42,1.42	c-0.133,0.133-0.205,0.308-0.205,0.495c0,0.187,0.073,0.362,0.205,0.495l0.146,0.145c0.273,0.273,0.717,0.273,0.99,0l1.42-1.42	c0.272-0.273,0.272-0.717,0-0.99l-0.146-0.146C24.622,30.07,24.443,30.002,24.264,30.002z"/><path d="M21.739,21.985c-0.721,0-1.398-0.28-1.907-0.789l-0.118-0.117c-1.056-1.056-1.056-2.769-0.003-3.821l1.38-1.38	c1.053-1.051,2.766-1.052,3.818-0.001L25.03,16c1.05,1.05,1.05,2.763-0.003,3.815l-1.38,1.379	C23.139,21.704,22.46,21.985,21.739,21.985z M23.001,17.088c-0.18,0-0.359,0.067-0.496,0.205l-1.38,1.379	c-0.272,0.273-0.272,0.717,0,0.99l0.12,0.118c0.264,0.266,0.724,0.267,0.987,0l1.381-1.379c0.272-0.273,0.272-0.717,0-0.99	l-0.121-0.122C23.357,17.155,23.18,17.088,23.001,17.088z"/><path d="M14.584,27.202c-0.49,0-0.918-0.359-0.989-0.858c-0.078-0.547,0.302-1.054,0.849-1.132l16.83-2.404	c0.545-0.08,1.054,0.302,1.132,0.849s-0.302,1.054-0.849,1.132l-16.83,2.404C14.679,27.199,14.631,27.202,14.584,27.202z"/></svg>